<svg width="100" height="100" viewBox="0 0 100 100" fill="none" xmlns="http://www.w3.org/2000/svg">
<path d="M17.8999 49.9998L53.2833 13.6373C53.5746 13.3442 53.8049 12.9963 53.9609 12.6137C54.1169 12.2311 54.1954 11.8213 54.192 11.4081C54.1885 10.9949 54.1032 10.5865 53.9409 10.2065C53.7786 9.82655 53.5425 9.48253 53.2464 9.19437C52.9502 8.90621 52.5999 8.67965 52.2156 8.52779C51.8313 8.37593 51.4207 8.30178 51.0076 8.30965C50.5945 8.31751 50.187 8.40723 49.8088 8.57361C49.4305 8.73999 49.0891 8.97973 48.8041 9.27895L11.3041 47.8206C10.7365 48.404 10.4189 49.1858 10.4189 49.9998C10.4189 50.8137 10.7365 51.5956 11.3041 52.1789L48.8041 90.7206C49.0891 91.0198 49.4305 91.2596 49.8088 91.426C50.187 91.5923 50.5945 91.6821 51.0076 91.6899C51.4207 91.6978 51.8313 91.6236 52.2156 91.4718C52.5999 91.3199 52.9502 91.0934 53.2464 90.8052C53.5425 90.517 53.7786 90.173 53.9409 89.793C54.1032 89.413 54.1885 89.0046 54.192 88.5914C54.1954 88.1783 54.1169 87.7685 53.9609 87.3859C53.8049 87.0032 53.5746 86.6553 53.2833 86.3623L17.8999 49.9998Z" fill="#333333"/>
</svg>
