<svg width="50" height="50" viewBox="0 0 50 50" fill="none" xmlns="http://www.w3.org/2000/svg">
<path d="M25.0001 41.05L6.81888 23.3584C6.67237 23.2127 6.49842 23.0975 6.3071 23.0196C6.11578 22.9416 5.9109 22.9023 5.70431 22.904C5.49771 22.9057 5.29351 22.9484 5.10351 23.0296C4.91352 23.1107 4.74151 23.2287 4.59743 23.3768C4.45335 23.5249 4.34007 23.7001 4.26414 23.8922C4.18821 24.0843 4.15114 24.2896 4.15507 24.4962C4.159 24.7028 4.20386 24.9065 4.28705 25.0956C4.37024 25.2847 4.49011 25.4555 4.63972 25.5979L23.9106 44.3479C24.2022 44.6317 24.5932 44.7905 25.0001 44.7905C25.4071 44.7905 25.798 44.6317 26.0897 44.3479L45.3606 25.5979C45.5102 25.4555 45.63 25.2847 45.7132 25.0956C45.7964 24.9065 45.8413 24.7028 45.8452 24.4962C45.8491 24.2896 45.8121 24.0843 45.7361 23.8922C45.6602 23.7001 45.5469 23.5249 45.4028 23.3768C45.2588 23.2287 45.0868 23.1107 44.8968 23.0296C44.7068 22.9484 44.5026 22.9057 44.296 22.904C44.0894 22.9023 43.8845 22.9416 43.6932 23.0196C43.5019 23.0975 43.3279 23.2127 43.1814 23.3584L25.0001 41.05Z" fill="#333333"/>
</svg>
