<svg width="50" height="50" viewBox="0 0 50 50" fill="none" xmlns="http://www.w3.org/2000/svg">
<path d="M24.9999 8.94997L43.1811 26.6416C43.3276 26.7873 43.5016 26.9025 43.6929 26.9804C43.8842 27.0584 44.0891 27.0977 44.2957 27.096C44.5023 27.0943 44.7065 27.0516 44.8965 26.9704C45.0865 26.8893 45.2585 26.7713 45.4026 26.6232C45.5466 26.4751 45.6599 26.2999 45.7359 26.1078C45.8118 25.9157 45.8489 25.7104 45.8449 25.5038C45.841 25.2972 45.7961 25.0935 45.713 24.9044C45.6298 24.7153 45.5099 24.5445 45.3603 24.4021L26.0894 5.65206C25.7978 5.36826 25.4068 5.20947 24.9999 5.20947C24.5929 5.20947 24.202 5.36826 23.9103 5.65206L4.63944 24.4021C4.48983 24.5445 4.36997 24.7153 4.28678 24.9044C4.20359 25.0935 4.15873 25.2972 4.1548 25.5038C4.15087 25.7104 4.18793 25.9157 4.26387 26.1078C4.3398 26.2999 4.45308 26.4751 4.59716 26.6232C4.74123 26.7713 4.91325 26.8893 5.10324 26.9704C5.29324 27.0516 5.49744 27.0943 5.70403 27.096C5.91063 27.0977 6.11551 27.0584 6.30683 26.9804C6.49815 26.9025 6.6721 26.7873 6.81861 26.6416L24.9999 8.94997Z" fill="#CCCCCC"/>
</svg>
