<svg width="50" height="50" viewBox="0 0 50 50" fill="none" xmlns="http://www.w3.org/2000/svg">
<path d="M41.05 24.9999L23.3584 43.1811C23.2127 43.3276 23.0975 43.5016 23.0196 43.6929C22.9416 43.8842 22.9023 44.0891 22.904 44.2957C22.9057 44.5023 22.9484 44.7065 23.0296 44.8965C23.1107 45.0865 23.2287 45.2585 23.3768 45.4026C23.5249 45.5466 23.7001 45.6599 23.8922 45.7359C24.0843 45.8118 24.2896 45.8489 24.4962 45.8449C24.7028 45.841 24.9065 45.7961 25.0956 45.713C25.2847 45.6298 25.4555 45.5099 25.5979 45.3603L44.3479 26.0894C44.6317 25.7978 44.7905 25.4068 44.7905 24.9999C44.7905 24.5929 44.6317 24.202 44.3479 23.9103L25.5979 4.63944C25.4555 4.48983 25.2847 4.36997 25.0956 4.28678C24.9065 4.20359 24.7028 4.15873 24.4962 4.1548C24.2896 4.15087 24.0843 4.18793 23.8922 4.26387C23.7001 4.3398 23.5249 4.45308 23.3768 4.59716C23.2287 4.74123 23.1107 4.91325 23.0296 5.10324C22.9484 5.29324 22.9057 5.49744 22.904 5.70403C22.9023 5.91063 22.9416 6.11551 23.0196 6.30683C23.0975 6.49815 23.2127 6.6721 23.3584 6.81861L41.05 24.9999Z" fill="#CCCCCC"/>
</svg>
