<svg width="120" height="120" viewBox="0 0 120 120" fill="none" xmlns="http://www.w3.org/2000/svg">
<circle cx="60" cy="60" r="59.5" fill="white" stroke="#DDDDDD"/>
<path d="M84.2687 56.7688C84.0365 57.0012 83.7608 57.1856 83.4573 57.3114C83.1538 57.4372 82.8285 57.502 82.4999 57.502C82.1714 57.502 81.8461 57.4372 81.5426 57.3114C81.2391 57.1856 80.9634 57.0012 80.7312 56.7688L62.4999 38.5344V87.5C62.4999 88.1631 62.2365 88.7989 61.7677 89.2678C61.2989 89.7366 60.663 90 59.9999 90C59.3369 90 58.701 89.7366 58.2322 89.2678C57.7633 88.7989 57.4999 88.1631 57.4999 87.5V38.5344L39.2687 56.7688C38.7996 57.2379 38.1633 57.5014 37.4999 57.5014C36.8365 57.5014 36.2003 57.2379 35.7312 56.7688C35.2621 56.2997 34.9985 55.6634 34.9985 55C34.9985 54.3366 35.2621 53.7004 35.7312 53.2313L58.2312 30.7313C58.4634 30.4988 58.7391 30.3144 59.0426 30.1886C59.3461 30.0628 59.6714 29.998 59.9999 29.998C60.3285 29.998 60.6538 30.0628 60.9573 30.1886C61.2608 30.3144 61.5365 30.4988 61.7687 30.7313L84.2687 53.2313C84.5011 53.4634 84.6855 53.7392 84.8113 54.0427C84.9371 54.3462 85.0019 54.6715 85.0019 55C85.0019 55.3286 84.9371 55.6539 84.8113 55.9574C84.6855 56.2609 84.5011 56.5366 84.2687 56.7688Z" fill="#555555"/>
</svg>
