<svg width="100" height="100" viewBox="0 0 100 100" fill="none" xmlns="http://www.w3.org/2000/svg">
<g clip-path="url(#clip0_149_618)">
<path d="M66.8126 12.5626C69.0563 10.3185 72.0695 9.01163 75.2411 8.90717C78.4127 8.80271 81.5054 9.90846 83.8918 12.0001L84.4918 12.5626L87.4377 15.5085C89.6806 17.7519 90.9867 20.7642 91.0912 23.9349C91.1956 27.1055 90.0906 30.1973 88.0002 32.5835L87.4377 33.1835L40.721 79.9043C40.0605 80.5648 39.2603 81.0688 38.3793 81.3793L37.7043 81.5751L19.146 85.8585C18.4958 86.0087 17.8191 86.0008 17.1727 85.8353C16.5263 85.6698 15.929 85.3517 15.431 84.9075C14.9329 84.4634 14.5488 83.9063 14.3107 83.2829C14.0726 82.6596 13.9875 81.9882 14.0627 81.3251L14.146 80.8543L18.4252 62.2918C18.6365 61.3814 19.0495 60.5299 19.6335 59.8002L20.096 59.2793L66.8126 12.5626ZM63.8668 27.2918L26.4085 64.7501L23.7585 76.2418L35.2502 73.5876L72.7085 36.1293L63.8668 27.2918ZM78.6002 18.4543C77.8827 17.7369 76.9281 17.3059 75.9155 17.2423C74.9029 17.1786 73.9018 17.4866 73.1002 18.1085L72.7085 18.4543L69.7585 21.4001L78.6002 30.2376L81.546 27.2918C82.2634 26.5743 82.6944 25.6198 82.758 24.6071C82.8217 23.5945 82.5137 22.5935 81.8918 21.7918L81.546 21.4001L78.6002 18.4543Z" fill="#999999"/>
</g>
<defs>
<clipPath id="clip0_149_618">
<rect width="100" height="100" fill="white"/>
</clipPath>
</defs>
</svg>
