<svg width="100" height="100" viewBox="0 0 100 100" fill="none" xmlns="http://www.w3.org/2000/svg">
<path d="M11.7646 14.7061H20.098L22.1813 27.2061M22.1813 27.2061L28.4313 64.7061H74.2646L86.7646 27.2061H22.1813Z" stroke="white" stroke-width="4" stroke-linecap="round" stroke-linejoin="round"/>
<path d="M32.5983 86.765C34.8995 86.765 36.765 84.8995 36.765 82.5983C36.765 80.2971 34.8995 78.4316 32.5983 78.4316C30.2971 78.4316 28.4316 80.2971 28.4316 82.5983C28.4316 84.8995 30.2971 86.765 32.5983 86.765Z" stroke="white" stroke-width="3" stroke-linecap="round" stroke-linejoin="round"/>
<path d="M70.0983 86.765C72.3995 86.765 74.265 84.8995 74.265 82.5983C74.265 80.2971 72.3995 78.4316 70.0983 78.4316C67.7971 78.4316 65.9316 80.2971 65.9316 82.5983C65.9316 84.8995 67.7971 86.765 70.0983 86.765Z" stroke="white" stroke-width="3" stroke-linecap="round" stroke-linejoin="round"/>
</svg>
