<svg width="100" height="100" viewBox="0 0 100 100" fill="none" xmlns="http://www.w3.org/2000/svg">
<path d="M84.5 6.25C86.1569 6.25 87.5 7.59315 87.5 9.25V84.5C87.5 86.1569 86.1569 87.5 84.5 87.5H15.5C13.8431 87.5 12.5 86.1569 12.5 84.5V9.25C12.5 7.59314 13.8431 6.25 15.5 6.25H84.5ZM81.25 15.5C81.25 13.8431 79.9069 12.5 78.25 12.5H21.75C20.0931 12.5 18.75 13.8431 18.75 15.5V78.25C18.75 79.9069 20.0931 81.25 21.75 81.25H78.25C79.9069 81.25 81.25 79.9069 81.25 78.25V15.5ZM68.75 47C68.75 48.6569 67.4069 50 65.75 50H34.25C32.5931 50 31.25 48.6569 31.25 47V46.75C31.25 45.0931 32.5931 43.75 34.25 43.75H65.75C67.4069 43.75 68.75 45.0931 68.75 46.75V47ZM68.75 65.75C68.75 67.4069 67.4069 68.75 65.75 68.75H34.25C32.5931 68.75 31.25 67.4069 31.25 65.75V65.5C31.25 63.8431 32.5931 62.5 34.25 62.5H65.75C67.4069 62.5 68.75 63.8431 68.75 65.5V65.75ZM68.75 28.25C68.75 29.9069 67.4069 31.25 65.75 31.25H34.25C32.5931 31.25 31.25 29.9069 31.25 28.25V28C31.25 26.3431 32.5931 25 34.25 25H65.75C67.4069 25 68.75 26.3431 68.75 28V28.25Z" fill="#333333"/>
</svg>
