<svg width="203" height="60" viewBox="0 0 203 60" fill="none" xmlns="http://www.w3.org/2000/svg">
<rect width="203" height="60" rx="30" fill="#D9D9D9"/>
<path d="M57.725 19.325H59.8V41.95H57.725V19.325ZM51.1 21.775H53.15C53.15 23.4083 52.95 24.9833 52.55 26.5C52.1667 28.0167 51.5583 29.4583 50.725 30.825C49.8917 32.175 48.8083 33.4333 47.475 34.6C46.1417 35.7667 44.525 36.8083 42.625 37.725L41.525 36.05C43.7083 35 45.5083 33.775 46.925 32.375C48.3417 30.975 49.3917 29.4167 50.075 27.7C50.7583 25.9667 51.1 24.1 51.1 22.1V21.775ZM42.575 21.775H51.975V23.45H42.575V21.775ZM66.948 20.225H68.998V23.05H79.948V20.225H81.998V29.275H66.948V20.225ZM68.998 24.7V27.6H79.948V24.7H68.998ZM64.248 31.675H84.673V33.375H64.248V31.675ZM73.423 28.275H75.498V32.425H73.423V28.275ZM66.873 39.75H82.398V41.45H66.873V39.75ZM66.873 35.175H68.948V40.325H66.873V35.175ZM94.5402 21.475H96.5152V26.975H101.265V21.475H103.19V36.3H94.5402V21.475ZM96.5152 28.65V34.6H101.265V28.65H96.5152ZM110.965 19.325H112.965V41.95H110.965V19.325ZM107.34 28.275H111.69V30H107.34V28.275ZM105.94 19.8H107.915V40.8H105.94V19.8ZM125.913 27.25H127.963V31.45H125.913V27.25ZM125.888 19.675H127.663V20.7C127.663 21.5 127.505 22.2583 127.188 22.975C126.872 23.6917 126.422 24.35 125.838 24.95C125.272 25.55 124.613 26.0833 123.863 26.55C123.113 27 122.305 27.3917 121.438 27.725C120.572 28.0417 119.672 28.275 118.738 28.425L117.963 26.775C118.763 26.6583 119.547 26.475 120.313 26.225C121.097 25.9583 121.822 25.6417 122.488 25.275C123.155 24.8917 123.738 24.4583 124.238 23.975C124.755 23.4917 125.155 22.975 125.438 22.425C125.738 21.875 125.888 21.3 125.888 20.7V19.675ZM126.213 19.675H127.988V20.7C127.988 21.3 128.13 21.875 128.413 22.425C128.697 22.975 129.097 23.4917 129.613 23.975C130.13 24.4417 130.722 24.8667 131.388 25.25C132.055 25.6333 132.772 25.9583 133.538 26.225C134.322 26.475 135.113 26.6583 135.913 26.775L135.113 28.425C134.197 28.275 133.305 28.0417 132.438 27.725C131.588 27.3917 130.78 26.9917 130.013 26.525C129.263 26.0583 128.597 25.5333 128.013 24.95C127.447 24.35 127.005 23.7 126.688 23C126.372 22.2833 126.213 21.5167 126.213 20.7V19.675ZM116.738 30.55H137.163V32.225H116.738V30.55ZM126.938 34.075C129.355 34.075 131.247 34.4167 132.613 35.1C133.98 35.7833 134.663 36.75 134.663 38C134.663 39.25 133.98 40.2083 132.613 40.875C131.247 41.5583 129.355 41.9 126.938 41.9C124.505 41.9 122.605 41.5583 121.238 40.875C119.872 40.2083 119.188 39.25 119.188 38C119.188 36.75 119.872 35.7833 121.238 35.1C122.605 34.4167 124.505 34.075 126.938 34.075ZM126.938 35.7C125.155 35.7 123.763 35.9 122.763 36.3C121.78 36.6833 121.288 37.25 121.288 38C121.288 38.7333 121.78 39.3 122.763 39.7C123.763 40.1 125.155 40.3 126.938 40.3C128.705 40.3 130.088 40.1 131.088 39.7C132.088 39.3 132.588 38.7333 132.588 38C132.588 37.25 132.088 36.6833 131.088 36.3C130.088 35.9 128.705 35.7 126.938 35.7ZM145.711 22.575H147.411V26.225C147.411 27.425 147.245 28.6083 146.911 29.775C146.578 30.925 146.111 32.0167 145.511 33.05C144.928 34.0667 144.245 34.9667 143.461 35.75C142.678 36.5333 141.836 37.15 140.936 37.6L139.736 35.95C140.553 35.55 141.32 35.0083 142.036 34.325C142.77 33.6417 143.411 32.8583 143.961 31.975C144.511 31.0917 144.936 30.1583 145.236 29.175C145.553 28.1917 145.711 27.2083 145.711 26.225V22.575ZM146.136 22.575H147.811V26.225C147.811 27.175 147.961 28.125 148.261 29.075C148.578 30.0083 149.011 30.8917 149.561 31.725C150.128 32.5417 150.77 33.2667 151.486 33.9C152.22 34.5333 153.003 35.0333 153.836 35.4L152.686 37.05C151.77 36.6167 150.911 36.0333 150.111 35.3C149.311 34.5667 148.611 33.725 148.011 32.775C147.428 31.8083 146.97 30.775 146.636 29.675C146.303 28.5583 146.136 27.4083 146.136 26.225V22.575ZM140.461 21.65H153.086V23.375H140.461V21.65ZM156.161 19.325H158.236V41.95H156.161V19.325Z" fill="black"/>
</svg>
