<svg width="120" height="120" viewBox="0 0 120 120" fill="none" xmlns="http://www.w3.org/2000/svg">
<circle cx="60" cy="60" r="60" fill="url(#paint0_linear_149_585)"/>
<path d="M27.4087 52H22.2787V32.722H33.6727V36.907H27.4087V40.579H33.1867V44.764H27.4087V52ZM48.2814 52H36.8334V32.722H48.2814V36.907H42.0444V39.931H47.8224V44.116H42.0444V47.761H48.2814V52ZM64.2608 46.141C64.2608 47.185 63.9908 48.175 63.4508 49.111C62.9288 50.047 62.1098 50.812 60.9938 51.406C59.8958 51.982 58.4648 52.27 56.7008 52.27C55.8188 52.27 55.0448 52.225 54.3788 52.135C53.7308 52.063 53.1188 51.937 52.5428 51.757C51.9668 51.577 51.3728 51.343 50.7608 51.055V46.411C51.8048 46.933 52.8578 47.338 53.9198 47.626C54.9818 47.896 55.9448 48.031 56.8088 48.031C57.3308 48.031 57.7538 47.968 58.0778 47.842C58.4018 47.716 58.6448 47.545 58.8068 47.329C58.9688 47.113 59.0498 46.87 59.0498 46.6C59.0498 46.258 58.9328 45.97 58.6988 45.736C58.4648 45.502 58.0958 45.259 57.5918 45.007C57.0878 44.755 56.4128 44.44 55.5668 44.062C54.8468 43.738 54.1988 43.396 53.6228 43.036C53.0468 42.676 52.5518 42.271 52.1378 41.821C51.7418 41.371 51.4358 40.849 51.2198 40.255C51.0038 39.643 50.8958 38.923 50.8958 38.095C50.8958 36.853 51.2018 35.818 51.8138 34.99C52.4258 34.144 53.2718 33.514 54.3518 33.1C55.4498 32.668 56.7188 32.452 58.1588 32.452C59.4188 32.452 60.5528 32.596 61.5608 32.884C62.5688 33.154 63.4688 33.469 64.2608 33.829L62.6678 37.852C61.8398 37.474 61.0208 37.177 60.2108 36.961C59.4188 36.727 58.6808 36.61 57.9968 36.61C57.5468 36.61 57.1778 36.664 56.8898 36.772C56.6018 36.88 56.3858 37.033 56.2418 37.231C56.1158 37.411 56.0528 37.618 56.0528 37.852C56.0528 38.158 56.1698 38.428 56.4038 38.662C56.6378 38.896 57.0248 39.157 57.5648 39.445C58.1228 39.715 58.8788 40.066 59.8328 40.498C60.7688 40.912 61.5608 41.371 62.2088 41.875C62.8748 42.361 63.3788 42.946 63.7208 43.63C64.0808 44.296 64.2608 45.133 64.2608 46.141ZM75.7398 52H70.5288V36.988H65.8308V32.722H80.4378V36.988H75.7398V52ZM93.1145 52L92.1695 48.382H85.9055L84.9335 52H79.2095L85.5005 32.641H92.4395L98.8115 52H93.1145ZM90.2525 40.957C90.1625 40.615 90.0365 40.129 89.8745 39.499C89.7125 38.851 89.5505 38.185 89.3885 37.501C89.2265 36.817 89.1005 36.259 89.0105 35.827C88.9385 36.259 88.8215 36.799 88.6595 37.447C88.5155 38.095 88.3625 38.734 88.2005 39.364C88.0565 39.994 87.9305 40.525 87.8225 40.957L86.9855 44.116H91.0895L90.2525 40.957ZM42.9649 78.956C42.9649 81.188 42.5419 83.051 41.6959 84.545C40.8679 86.039 39.6979 87.155 38.1859 87.893C36.6739 88.631 34.8919 89 32.8399 89H26.6029V69.722H33.2719C35.3419 69.722 37.0969 70.082 38.5369 70.802C39.9769 71.504 41.0749 72.539 41.8309 73.907C42.5869 75.275 42.9649 76.958 42.9649 78.956ZM37.5649 79.145C37.5649 77.975 37.4029 77.003 37.0789 76.229C36.7729 75.455 36.3049 74.879 35.6749 74.501C35.0629 74.123 34.2799 73.934 33.3259 73.934H31.8139V84.734H32.9749C34.5589 84.734 35.7199 84.275 36.4579 83.357C37.1959 82.439 37.5649 81.035 37.5649 79.145ZM57.8791 89H46.4311V69.722H57.8791V73.907H51.6421V76.931H57.4201V81.116H51.6421V84.761H57.8791V89ZM73.0754 89L72.1304 85.382H65.8664L64.8944 89H59.1704L65.4614 69.641H72.4004L78.7724 89H73.0754ZM70.2134 77.957C70.1234 77.615 69.9974 77.129 69.8354 76.499C69.6734 75.851 69.5114 75.185 69.3494 74.501C69.1874 73.817 69.0614 73.259 68.9714 72.827C68.8994 73.259 68.7824 73.799 68.6204 74.447C68.4764 75.095 68.3234 75.734 68.1614 76.364C68.0174 76.994 67.8914 77.525 67.7834 77.957L66.9464 81.116H71.0504L70.2134 77.957ZM80.8402 89V69.722H86.0512V84.788H93.4762V89H80.8402Z" fill="white"/>
<defs>
<linearGradient id="paint0_linear_149_585" x1="60" y1="0" x2="60" y2="120" gradientUnits="userSpaceOnUse">
<stop stop-color="#AB3072"/>
<stop offset="0.5" stop-color="#A84279" stop-opacity="0.37"/>
<stop offset="1" stop-color="#A8437A" stop-opacity="0.04"/>
</linearGradient>
</defs>
</svg>
