<svg width="100" height="100" viewBox="0 0 100 100" fill="none" xmlns="http://www.w3.org/2000/svg">
<path fill-rule="evenodd" clip-rule="evenodd" d="M12.5 40C13.163 40 13.7989 40.2634 14.2678 40.7322C14.7366 41.2011 15 41.837 15 42.5V85H85V42.5C85 41.837 85.2634 41.2011 85.7322 40.7322C86.2011 40.2634 86.837 40 87.5 40C88.163 40 88.7989 40.2634 89.2678 40.7322C89.7366 41.2011 90 41.837 90 42.5V87.5C90 88.163 89.7366 88.7989 89.2678 89.2678C88.7989 89.7366 88.163 90 87.5 90H12.5C11.837 90 11.2011 89.7366 10.7322 89.2678C10.2634 88.7989 10 88.163 10 87.5V42.5C10 41.837 10.2634 41.2011 10.7322 40.7322C11.2011 40.2634 11.837 40 12.5 40Z" fill="#5E0080"/>
<path fill-rule="evenodd" clip-rule="evenodd" d="M15 27.5C15 26.837 15.2634 26.2011 15.7322 25.7322C16.2011 25.2634 16.837 25 17.5 25H82.5C83.163 25 83.7989 25.2634 84.2678 25.7322C84.7366 26.2011 85 26.837 85 27.5V50.85C84.9998 51.2617 84.8979 51.667 84.7034 52.0298C84.5089 52.3927 84.2278 52.7019 83.885 52.93L51.385 74.58C50.9747 74.853 50.4928 74.9987 50 74.9987C49.5072 74.9987 49.0253 74.853 48.615 74.58L16.115 52.93C15.7722 52.7019 15.4911 52.3927 15.2966 52.0298C15.1021 51.667 15.0002 51.2617 15 50.85V27.5ZM20 30V49.51L50 69.495L80 49.51V30H20Z" fill="#5E0080"/>
<path fill-rule="evenodd" clip-rule="evenodd" d="M48.6155 10.4202C49.0258 10.1471 49.5076 10.0015 50.0005 10.0015C50.4933 10.0015 50.9752 10.1471 51.3855 10.4202L73.8855 25.4202L71.1155 29.5802L50.0005 15.5052L28.8855 29.5802L26.1155 25.4202L48.6155 10.4202ZM84.2705 35.7302L89.2705 40.7302L85.7305 44.2702L80.7305 39.2702L84.2705 35.7302ZM19.2705 39.2702L14.2705 44.2702L10.7305 40.7302L15.7305 35.7302L19.2705 39.2702ZM33.7505 40.0002C33.7505 39.6687 33.8822 39.3507 34.1166 39.1163C34.351 38.8819 34.669 38.7502 35.0005 38.7502H65.0005C65.332 38.7502 65.6499 38.8819 65.8844 39.1163C66.1188 39.3507 66.2505 39.6687 66.2505 40.0002C66.2505 40.3317 66.1188 40.6496 65.8844 40.8841C65.6499 41.1185 65.332 41.2502 65.0005 41.2502H35.0005C34.669 41.2502 34.351 41.1185 34.1166 40.8841C33.8822 40.6496 33.7505 40.3317 33.7505 40.0002ZM36.2505 50.0002C36.2505 49.6687 36.3822 49.3507 36.6166 49.1163C36.851 48.8819 37.169 48.7502 37.5005 48.7502H62.5005C62.832 48.7502 63.1499 48.8819 63.3844 49.1163C63.6188 49.3507 63.7505 49.6687 63.7505 50.0002C63.7505 50.3317 63.6188 50.6496 63.3844 50.8841C63.1499 51.1185 62.832 51.2502 62.5005 51.2502H37.5005C37.169 51.2502 36.851 51.1185 36.6166 50.8841C36.3822 50.6496 36.2505 50.3317 36.2505 50.0002Z" fill="#5E0080"/>
</svg>
