<svg width="100" height="100" viewBox="0 0 100 100" fill="none" xmlns="http://www.w3.org/2000/svg">
<path d="M82.2915 41.6668C82.2915 40.838 81.9623 40.0432 81.3762 39.4571C80.7902 38.8711 79.9953 38.5418 79.1665 38.5418C78.3377 38.5418 77.5428 38.8711 76.9568 39.4571C76.3707 40.0432 76.0415 40.838 76.0415 41.6668H82.2915ZM23.9582 41.6668C23.9582 40.838 23.6289 40.0432 23.0429 39.4571C22.4568 38.8711 21.662 38.5418 20.8332 38.5418C20.0044 38.5418 19.2095 38.8711 18.6235 39.4571C18.0374 40.0432 17.7082 40.838 17.7082 41.6668H23.9582ZM85.2915 52.2085C85.5776 52.5155 85.9226 52.7618 86.3059 52.9326C86.6892 53.1034 87.1031 53.1952 87.5227 53.2026C87.9422 53.2101 88.359 53.1329 88.7481 52.9757C89.1373 52.8185 89.4907 52.5846 89.7875 52.2878C90.0842 51.9911 90.3182 51.6376 90.4753 51.2485C90.6325 50.8594 90.7097 50.4426 90.7023 50.023C90.6949 49.6034 90.6031 49.1896 90.4323 48.8063C90.2615 48.4229 90.0152 48.0779 89.7082 47.7919L85.2915 52.2085ZM49.9998 12.5002L52.2082 10.2918C51.6222 9.70664 50.828 9.37793 49.9998 9.37793C49.1717 9.37793 48.3774 9.70664 47.7915 10.2918L49.9998 12.5002ZM10.2915 47.7919C9.98446 48.0779 9.73821 48.4229 9.56741 48.8063C9.39661 49.1896 9.30476 49.6034 9.29736 50.023C9.28996 50.4426 9.36714 50.8594 9.52431 51.2485C9.68149 51.6376 9.91542 51.9911 10.2122 52.2878C10.5089 52.5846 10.8624 52.8185 11.2515 52.9757C11.6406 53.1329 12.0574 53.2101 12.477 53.2026C12.8966 53.1952 13.3104 53.1034 13.6937 52.9326C14.0771 52.7618 14.4221 52.5155 14.7082 52.2085L10.2915 47.7919ZM29.1665 90.6252H70.8332V84.3752H29.1665V90.6252ZM82.2915 79.1669V41.6668H76.0415V79.1669H82.2915ZM23.9582 79.1669V41.6668H17.7082V79.1669H23.9582ZM89.7082 47.7919L52.2082 10.2918L47.7915 14.7085L85.2915 52.2085L89.7082 47.7919ZM47.7915 10.2918L10.2915 47.7919L14.7082 52.2085L52.2082 14.7085L47.7915 10.2918ZM70.8332 90.6252C73.8721 90.6252 76.7866 89.418 78.9354 87.2691C81.0843 85.1203 82.2915 82.2058 82.2915 79.1669H76.0415C76.0415 82.0419 73.7082 84.3752 70.8332 84.3752V90.6252ZM29.1665 84.3752C26.2915 84.3752 23.9582 82.0419 23.9582 79.1669H17.7082C17.7082 82.2058 18.9154 85.1203 21.0642 87.2691C23.2131 89.418 26.1276 90.6252 29.1665 90.6252V84.3752Z" fill="#333333"/>
</svg>
