<svg width="100" height="100" viewBox="0 0 100 100" fill="none" xmlns="http://www.w3.org/2000/svg">
<path d="M21.875 6.25C17.731 6.25 13.7567 7.8962 10.8265 10.8265C7.8962 13.7567 6.25 17.731 6.25 21.875V65.625C6.25 69.769 7.8962 73.7433 10.8265 76.6735C13.7567 79.6038 17.731 81.25 21.875 81.25H50.3125C50.7812 78.9375 51.7562 76.8125 53.125 75H21.875C19.3886 75 17.004 74.0123 15.2459 72.2541C13.4877 70.496 12.5 68.1114 12.5 65.625V21.875C12.5 19.3886 13.4877 17.004 15.2459 15.2459C17.004 13.4877 19.3886 12.5 21.875 12.5H65.625C68.1114 12.5 70.496 13.4877 72.2541 15.2459C74.0123 17.004 75 19.3886 75 21.875V37.7562C77.0689 37.4089 79.1811 37.4089 81.25 37.7562V21.875C81.25 17.731 79.6038 13.7567 76.6735 10.8265C73.7433 7.8962 69.769 6.25 65.625 6.25H21.875ZM61.5875 36.5875C61.8781 36.297 62.1085 35.952 62.2658 35.5724C62.423 35.1928 62.5039 34.7859 62.5039 34.375C62.5039 33.9641 62.423 33.5572 62.2658 33.1776C62.1085 32.798 61.8781 32.453 61.5875 32.1625C61.297 31.872 60.952 31.6415 60.5724 31.4842C60.1928 31.327 59.7859 31.2461 59.375 31.2461C58.9641 31.2461 58.5572 31.327 58.1776 31.4842C57.798 31.6415 57.453 31.872 57.1625 32.1625L37.5 51.8313L30.3375 44.6625C30.047 44.3719 29.702 44.1415 29.3224 43.9842C28.9428 43.827 28.5359 43.7461 28.125 43.7461C27.7141 43.7461 27.3072 43.827 26.9276 43.9842C26.548 44.1415 26.203 44.3719 25.9125 44.6625C25.622 44.953 25.3915 45.298 25.2342 45.6776C25.077 46.0572 24.9961 46.4641 24.9961 46.875C24.9961 47.2859 25.077 47.6928 25.2342 48.0724C25.3915 48.452 25.622 48.797 25.9125 49.0875L35.2875 58.4625C35.5778 58.7535 35.9226 58.9844 36.3023 59.142C36.6819 59.2995 37.089 59.3806 37.5 59.3806C37.911 59.3806 38.3181 59.2995 38.6977 59.142C39.0774 58.9844 39.4222 58.7535 39.7125 58.4625L61.5875 36.5875ZM90.625 56.25C90.625 59.5652 89.308 62.7446 86.9638 65.0888C84.6196 67.433 81.4402 68.75 78.125 68.75C74.8098 68.75 71.6304 67.433 69.2862 65.0888C66.942 62.7446 65.625 59.5652 65.625 56.25C65.625 52.9348 66.942 49.7554 69.2862 47.4112C71.6304 45.067 74.8098 43.75 78.125 43.75C81.4402 43.75 84.6196 45.067 86.9638 47.4112C89.308 49.7554 90.625 52.9348 90.625 56.25ZM100 84.375C100 92.1562 93.75 100 78.125 100C62.5 100 56.25 92.1875 56.25 84.375C56.25 81.8886 57.2377 79.504 58.9959 77.7459C60.754 75.9877 63.1386 75 65.625 75H90.625C93.1114 75 95.496 75.9877 97.2541 77.7459C99.0123 79.504 100 81.8886 100 84.375Z" fill="#5E0080"/>
</svg>
