<svg width="80" height="80" viewBox="0 0 80 80" fill="none" xmlns="http://www.w3.org/2000/svg">
<path d="M62.5 30H60V20.4588C60 8.98625 51.6987 0 39.9075 0C28.0688 0 20 9.1775 20 20.4588V30H17.5C11.985 30 7.5 34.485 7.5 40V70C7.5 75.515 11.985 80 17.5 80H62.5C68.015 80 72.5 75.515 72.5 70V40C72.5 34.485 68.015 30 62.5 30ZM25 20.4588C25 11.9363 30.825 5 39.9075 5C48.8963 5 55 11.79 55 20.4588V30H25V20.4588ZM67.5001 70C67.5001 72.7562 65.2563 75 62.5001 75H17.5001C14.7438 75 12.5001 72.7562 12.5001 70V40C12.5001 37.2438 14.7438 35 17.5001 35H62.5001C65.2563 35 67.5001 37.2438 67.5001 40V70ZM40.0001 45C37.2388 45 35.0001 47.2388 35.0001 50C35.0001 51.8462 36.0126 53.44 37.5001 54.3063V62.5C37.5001 63.88 38.6201 65 40.0001 65C41.3801 65 42.5001 63.88 42.5001 62.5V54.3063C43.9876 53.44 45.0001 51.845 45.0001 50C45.0001 47.2388 42.7613 45 40.0001 45Z" fill="#CCCCCC"/>
</svg>
