<svg width="100" height="100" viewBox="0 0 100 100" fill="none" xmlns="http://www.w3.org/2000/svg">
<path d="M50.0004 10.4165C54.9008 10.415 59.6726 11.9844 63.6155 14.8943C67.5584 17.8042 70.4647 21.9014 71.9078 26.5845C73.3509 31.2676 73.2549 36.29 71.6337 40.9145C70.0125 45.539 66.9517 49.522 62.9004 52.279C69.9323 54.8582 76.0313 59.4829 80.4125 65.5578C84.7937 71.6328 87.2564 78.88 87.4837 86.3665C87.5049 86.7821 87.443 87.1977 87.3015 87.589C87.1599 87.9802 86.9417 88.3393 86.6595 88.6451C86.3774 88.951 86.037 89.1973 85.6583 89.3699C85.2797 89.5424 84.8704 89.6375 84.4545 89.6497C84.0385 89.6619 83.6244 89.591 83.2363 89.4409C82.8481 89.291 82.4939 89.065 82.1943 88.7762C81.8947 88.4875 81.6557 88.1418 81.4915 87.7595C81.3273 87.3772 81.241 86.9659 81.2379 86.5498C80.9897 78.4309 77.5901 70.7276 71.7594 65.0724C65.9287 59.4172 58.1252 56.2544 50.0024 56.2544C41.8797 56.2544 34.0762 59.4172 28.2455 65.0724C22.4148 70.7276 19.0152 78.4309 18.767 86.5498C18.7422 87.3786 18.3891 88.1636 17.7855 88.7321C17.1818 89.3006 16.3771 89.6059 15.5483 89.5811C14.7195 89.5562 13.9345 89.2031 13.366 88.5995C12.7976 87.9959 12.4922 87.1911 12.517 86.3623C12.7451 78.8765 15.2083 71.6303 19.5894 65.5561C23.9705 59.482 30.0691 54.8579 37.1004 52.279C33.0491 49.522 29.9882 45.539 28.367 40.9145C26.7459 36.29 26.6498 31.2676 28.0929 26.5845C29.536 21.9014 32.4423 17.8042 36.3852 14.8943C40.3281 11.9844 45.1 10.415 50.0004 10.4165ZM33.3337 33.3332C33.3337 37.7534 35.0896 41.9927 38.2153 45.1183C41.3409 48.2439 45.5801 49.9998 50.0004 49.9998C54.4206 49.9998 58.6599 48.2439 61.7855 45.1183C64.9111 41.9927 66.667 37.7534 66.667 33.3332C66.667 28.9129 64.9111 24.6737 61.7855 21.5481C58.6599 18.4225 54.4206 16.6665 50.0004 16.6665C45.5801 16.6665 41.3409 18.4225 38.2153 21.5481C35.0896 24.6737 33.3337 28.9129 33.3337 33.3332Z" fill="#560C7B"/>
</svg>
