<svg width="70" height="70" viewBox="0 0 70 70" fill="none" xmlns="http://www.w3.org/2000/svg">
<circle cx="35" cy="35" r="35" fill="#B37FD2"/>
<path d="M48.24 34.68C48.24 36.8933 47.96 38.9067 47.4 40.72C46.8667 42.5067 46.04 44.0533 44.92 45.36C43.8267 46.6667 42.4267 47.6533 40.72 48.32L47.6 55.8H40.8L35.48 49.4C35.3733 49.4 35.2533 49.4 35.12 49.4C35.0133 49.4 34.9067 49.4 34.8 49.4C32.5067 49.4 30.5067 49.0533 28.8 48.36C27.12 47.64 25.7333 46.64 24.64 45.36C23.5467 44.0533 22.72 42.4933 22.16 40.68C21.6267 38.8667 21.36 36.8533 21.36 34.64C21.36 31.68 21.84 29.1067 22.8 26.92C23.7867 24.7333 25.2667 23.04 27.24 21.84C29.24 20.6133 31.7733 20 34.84 20C37.8533 20 40.3467 20.6133 42.32 21.84C44.2933 23.04 45.7733 24.7467 46.76 26.96C47.7467 29.1467 48.24 31.72 48.24 34.68ZM26.76 34.68C26.76 36.84 27.04 38.6933 27.6 40.24C28.1867 41.7867 29.0667 42.9733 30.24 43.8C31.44 44.6267 32.96 45.04 34.8 45.04C36.6933 45.04 38.2267 44.6267 39.4 43.8C40.5733 42.9733 41.44 41.7867 42 40.24C42.56 38.6933 42.84 36.84 42.84 34.68C42.84 31.4533 42.2133 28.92 40.96 27.08C39.7067 25.24 37.6667 24.32 34.84 24.32C32.9733 24.32 31.44 24.7333 30.24 25.56C29.0667 26.3867 28.1867 27.5733 27.6 29.12C27.04 30.6667 26.76 32.52 26.76 34.68Z" fill="white"/>
</svg>
