<svg width="70" height="70" viewBox="0 0 70 70" fill="none" xmlns="http://www.w3.org/2000/svg">
<path d="M63.4376 60.3445L46.9176 43.8245C50.8875 39.0586 52.8671 32.9457 52.4447 26.7574C52.0223 20.5691 49.2303 14.7819 44.6497 10.5997C40.069 6.41744 34.0523 4.1622 27.8513 4.3031C21.6502 4.444 15.7421 6.97019 11.3562 11.3562C6.97019 15.7421 4.444 21.6502 4.3031 27.8513C4.1622 34.0523 6.41744 40.069 10.5997 44.6497C14.7819 49.2303 20.5691 52.0223 26.7574 52.4447C32.9457 52.8671 39.0586 50.8875 43.8245 46.9176L60.3445 63.4376L63.4376 60.3445ZM8.7501 28.4376C8.7501 24.5438 9.90475 20.7374 12.068 17.4998C14.2313 14.2622 17.3061 11.7388 20.9035 10.2487C24.5009 8.75862 28.4594 8.36874 32.2784 9.12839C36.0974 9.88804 39.6054 11.7631 42.3588 14.5164C45.1121 17.2698 46.9872 20.7778 47.7468 24.5968C48.5065 28.4158 48.1166 32.3743 46.6265 35.9717C45.1364 39.5691 42.613 42.6439 39.3754 44.8072C36.1378 46.9705 32.3314 48.1251 28.4376 48.1251C23.2179 48.1193 18.2137 46.0432 14.5228 42.3524C10.832 38.6615 8.75589 33.6573 8.7501 28.4376Z" fill="#777777"/>
</svg>
