<svg width="100" height="100" viewBox="0 0 100 100" fill="none" xmlns="http://www.w3.org/2000/svg">
<path d="M90.6254 86.2062L67.0254 62.6062C72.6966 55.7978 75.5247 47.065 74.9212 38.2246C74.3178 29.3842 70.3293 21.1168 63.7855 15.1422C57.2418 9.16756 48.6465 5.94579 39.7878 6.14708C30.9291 6.34836 22.489 9.95721 16.2234 16.2229C9.9577 22.4885 6.34885 30.9286 6.14757 39.7873C5.94628 48.646 9.16805 57.2413 15.1427 63.7851C21.1173 70.3288 29.3847 74.3173 38.2251 74.9208C47.0655 75.5242 55.7983 72.6962 62.6067 67.0249L86.2067 90.6249L90.6254 86.2062ZM12.5004 40.6249C12.5004 35.0623 14.1499 29.6247 17.2403 24.9995C20.3308 20.3744 24.7233 16.7695 29.8625 14.6408C35.0016 12.5121 40.6566 11.9551 46.1123 13.0403C51.5681 14.1256 56.5794 16.8042 60.5128 20.7376C64.4462 24.6709 67.1248 29.6823 68.21 35.138C69.2952 40.5937 68.7383 46.2487 66.6095 51.3879C64.4808 56.5271 60.876 60.9196 56.2508 64.01C51.6257 67.1004 46.188 68.7499 40.6254 68.7499C33.1687 68.7417 26.0198 65.7758 20.7472 60.5032C15.4745 55.2305 12.5087 48.0816 12.5004 40.6249Z" fill="#333333"/>
</svg>
